<svg xmlns="http://www.w3.org/2000/svg" width="50" height="50" viewBox="0 0 50 50">
  <g id="github" transform="translate(0 -5.329)">
    <g id="Group_2" data-name="Group 2" transform="translate(0 5.329)">
      <path id="Path_2" data-name="Path 2" d="M25,5.329c-13.8,0-25,11.476-25,25.634A25.591,25.591,0,0,0,17.1,55.285c1.25.236,1.706-.555,1.706-1.235,0-.61-.022-2.221-.034-4.36-6.953,1.548-8.422-3.437-8.422-3.437C9.216,43.291,7.575,42.5,7.575,42.5c-2.272-1.589.169-1.557.169-1.557a5.264,5.264,0,0,1,3.828,2.643c2.231,3.916,5.853,2.786,7.278,2.129a5.516,5.516,0,0,1,1.587-3.428C14.887,41.641,9.05,39.442,9.05,29.622a10.054,10.054,0,0,1,2.575-6.881,9.419,9.419,0,0,1,.244-6.782s2.1-.689,6.875,2.627a23.124,23.124,0,0,1,12.519,0c4.772-3.316,6.869-2.627,6.869-2.627a9.433,9.433,0,0,1,.25,6.782,10.035,10.035,0,0,1,2.569,6.881c0,9.846-5.844,12.013-11.413,12.648a6.2,6.2,0,0,1,1.7,4.746c0,3.428-.031,6.191-.031,7.031,0,.686.45,1.484,1.719,1.232A25.594,25.594,0,0,0,50,30.963C50,16.805,38.806,5.329,25,5.329Z" transform="translate(0 -5.329)" fill="#fff"/>
    </g>
  </g>
</svg>
