<svg xmlns="http://www.w3.org/2000/svg" width="692" height="400" viewBox="0 0 692 400">
  <g id="skills" transform="translate(-888 -579)">
    <g id="photoshop" transform="translate(888 879)">
      <path id="Path_10" data-name="Path 10" d="M0,0H491a20,20,0,0,1,0,40H0Z" transform="translate(103 60)" fill="#fff" opacity="0.6"/>
      <rect id="Rectangle_8" data-name="Rectangle 8" width="117" height="40" transform="translate(0 60)" fill="#fff"/>
      <text id="Photoshop-2" data-name="Photoshop" transform="translate(4 87)" fill="#353d52" font-size="20" font-family="Montserrat-Regular, Montserrat"><tspan x="0" y="0">Photoshop</tspan></text>
      <text id="_80_" data-name="80%" transform="translate(552 87)" fill="#353d52" font-size="20" font-family="Montserrat-Regular, Montserrat"><tspan x="0" y="0">80%</tspan></text>
      <g id="figma">
        <path id="Rectangle_7" data-name="Rectangle 7" d="M0,0H567a20,20,0,0,1,20,20v0a20,20,0,0,1-20,20H0a0,0,0,0,1,0,0V0A0,0,0,0,1,0,0Z" transform="translate(105)" fill="#fff" opacity="0.6"/>
        <rect id="Rectangle_8-2" data-name="Rectangle 8" width="117" height="40" fill="#fff"/>
        <text id="Figma-2" data-name="Figma" transform="translate(27 27)" fill="#353d52" font-size="20" font-family="Montserrat-Regular, Montserrat"><tspan x="0" y="0">Figma</tspan></text>
        <text id="_90_" data-name="90%" transform="translate(630 27)" fill="#353d52" font-size="20" font-family="Montserrat-Regular, Montserrat"><tspan x="0" y="0">90%</tspan></text>
      </g>
    </g>
    <g id="adobe_xd" data-name="adobe xd" transform="translate(888 819)">
      <path id="Rectangle_7-2" data-name="Rectangle 7" d="M0,0H567a20,20,0,0,1,20,20v0a20,20,0,0,1-20,20H0a0,0,0,0,1,0,0V0A0,0,0,0,1,0,0Z" transform="translate(105)" fill="#fff" opacity="0.6"/>
      <rect id="Rectangle_8-3" data-name="Rectangle 8" width="117" height="40" fill="#fff"/>
      <text id="Adobe_XD-2" data-name="Adobe XD" transform="translate(8 27)" fill="#353d52" font-size="20" font-family="Montserrat-Regular, Montserrat"><tspan x="0" y="0">Adobe XD</tspan></text>
      <text id="_90_2" data-name="90%" transform="translate(630 27)" fill="#353d52" font-size="20" font-family="Montserrat-Regular, Montserrat"><tspan x="0" y="0">90%</tspan></text>
    </g>
    <g id="react" transform="translate(888 759)">
      <path id="Rectangle_7-3" data-name="Rectangle 7" d="M0,0H186.11a20,20,0,0,1,20,20v0a20,20,0,0,1-20,20H0a0,0,0,0,1,0,0V0A0,0,0,0,1,0,0Z" transform="translate(105)" fill="#fff" opacity="0.6"/>
      <rect id="Rectangle_8-4" data-name="Rectangle 8" width="117" height="40" fill="#fff"/>
      <text id="React-2" data-name="React" transform="translate(29 27)" fill="#353d52" font-size="20" font-family="Montserrat-Regular, Montserrat"><tspan x="0" y="0">React</tspan></text>
      <text id="_40_" data-name="40%" transform="translate(250.11 27)" fill="#353d52" font-size="20" font-family="Montserrat-Regular, Montserrat"><tspan x="0" y="0">40%</tspan></text>
    </g>
    <g id="javascript" transform="translate(888 699)">
      <path id="Path_9" data-name="Path 9" d="M0,0H419a20,20,0,0,1,0,40H0Z" transform="translate(105)" fill="#fff" opacity="0.6"/>
      <rect id="Rectangle_8-5" data-name="Rectangle 8" width="117" height="40" fill="#fff"/>
      <text id="JavaScript-2" data-name="JavaScript" transform="translate(6 27)" fill="#353d52" font-size="20" font-family="Montserrat-Regular, Montserrat"><tspan x="0" y="0">JavaScript</tspan></text>
      <text id="_70_" data-name="70%" transform="translate(483 27)" fill="#353d52" font-size="20" font-family="Montserrat-Regular, Montserrat"><tspan x="0" y="0">70%</tspan></text>
    </g>
    <g id="css" transform="translate(888 639)">
      <path id="Rectangle_7-4" data-name="Rectangle 7" d="M0,0H567a20,20,0,0,1,20,20v0a20,20,0,0,1-20,20H0a0,0,0,0,1,0,0V0A0,0,0,0,1,0,0Z" transform="translate(105)" fill="#fff" opacity="0.6"/>
      <rect id="Rectangle_8-6" data-name="Rectangle 8" width="117" height="40" fill="#fff"/>
      <text id="CSS-2" data-name="CSS" transform="translate(39 27)" fill="#353d52" font-size="20" font-family="Montserrat-Regular, Montserrat"><tspan x="0" y="0">CSS</tspan></text>
      <text id="_90_3" data-name="90%" transform="translate(630 27)" fill="#353d52" font-size="20" font-family="Montserrat-Regular, Montserrat"><tspan x="0" y="0">90%</tspan></text>
    </g>
    <g id="html" transform="translate(888 579)">
      <path id="Rectangle_7-5" data-name="Rectangle 7" d="M0,0H567a20,20,0,0,1,20,20v0a20,20,0,0,1-20,20H0a0,0,0,0,1,0,0V0A0,0,0,0,1,0,0Z" transform="translate(105)" fill="#fff" opacity="0.6"/>
      <rect id="Rectangle_8-7" data-name="Rectangle 8" width="117" height="40" fill="#fff"/>
      <text id="HTML-2" data-name="HTML" transform="translate(29 27)" fill="#353d52" font-size="20" font-family="Montserrat-Regular, Montserrat"><tspan x="0" y="0">HTML</tspan></text>
      <text id="_90_4" data-name="90%" transform="translate(630 27)" fill="#353d52" font-size="20" font-family="Montserrat-Regular, Montserrat"><tspan x="0" y="0">90%</tspan></text>
    </g>
  </g>
</svg>
