<svg xmlns="http://www.w3.org/2000/svg" width="53.331" height="50" viewBox="0 0 53.331 50">
  <g id="snapchat" transform="translate(0 -15.988)">
    <g id="Group_15" data-name="Group 15" transform="translate(0 15.988)">
      <path id="Path_6" data-name="Path 6" d="M52.285,53.325c-7.13-1.173-10.343-8.477-10.473-8.787a.5.5,0,0,0-.03-.06,2.2,2.2,0,0,1-.25-1.813c.39-.913,1.883-1.387,2.87-1.7.287-.09.557-.177.78-.263a6.036,6.036,0,0,0,2.127-1.27,2.02,2.02,0,0,0,.647-1.453,2.287,2.287,0,0,0-1.713-1.983,3.1,3.1,0,0,0-1.16-.22,2.583,2.583,0,0,0-1.08.22,6.061,6.061,0,0,1-2.223.633,2.041,2.041,0,0,1-.737-.16c.02-.333.04-.677.063-1.03l.01-.153c.23-3.61.513-8.1-.68-10.767a14.483,14.483,0,0,0-3.263-4.67,13.647,13.647,0,0,0-3.9-2.573,15.423,15.423,0,0,0-6.09-1.287h-.133l-.917.01a15.481,15.481,0,0,0-6.1,1.287,13.571,13.571,0,0,0-3.89,2.57,14.53,14.53,0,0,0-3.25,4.66c-1.193,2.663-.91,7.153-.683,10.76v.007c.023.387.05.79.073,1.183a2.136,2.136,0,0,1-.873.163,5.783,5.783,0,0,1-2.377-.637,2.135,2.135,0,0,0-.9-.187,3.194,3.194,0,0,0-1.6.447A2.209,2.209,0,0,0,5.4,37.695a1.991,1.991,0,0,0,.76,1.87A6.555,6.555,0,0,0,8.149,40.7c.227.09.5.173.78.263.987.313,2.483.787,2.873,1.7a2.22,2.22,0,0,1-.253,1.813.472.472,0,0,0-.027.06,17.651,17.651,0,0,1-2.687,4.153,15.075,15.075,0,0,1-3.24,2.86,11.923,11.923,0,0,1-4.55,1.77A1.245,1.245,0,0,0,0,54.621a1.579,1.579,0,0,0,.13.543v0a3.332,3.332,0,0,0,1.807,1.543,20.632,20.632,0,0,0,5.217,1.357,6.328,6.328,0,0,1,.32,1.147c.087.4.177.813.307,1.25a1.367,1.367,0,0,0,1.43,1.04,6.962,6.962,0,0,0,1.227-.17,13.949,13.949,0,0,1,2.8-.317,12.154,12.154,0,0,1,2,.17,9.5,9.5,0,0,1,3.737,1.93c1.907,1.347,4.067,2.87,7.367,2.87q.135,0,.27-.01c.107.007.243.01.383.01,3.3,0,5.46-1.523,7.367-2.867l0,0A9.534,9.534,0,0,1,38.1,61.191a12.153,12.153,0,0,1,2-.17,14.015,14.015,0,0,1,2.8.3,6.758,6.758,0,0,0,1.227.15h.06a1.35,1.35,0,0,0,1.37-1.023c.127-.43.217-.83.307-1.24a6.547,6.547,0,0,1,.317-1.14,20.775,20.775,0,0,0,5.217-1.357,3.345,3.345,0,0,0,1.8-1.54,1.584,1.584,0,0,0,.133-.55A1.24,1.24,0,0,0,52.285,53.325Z" transform="translate(0 -15.988)" fill="#fff"/>
    </g>
  </g>
</svg>
