<svg xmlns="http://www.w3.org/2000/svg" width="629.331" height="50" viewBox="0 0 629.331 50">
  <g id="social-media" transform="translate(-1176 -981)">
    <g id="facebook" transform="translate(1515 981)">
      <g id="Group_1" data-name="Group 1">
        <path id="Path_1" data-name="Path 1" d="M43.75,0H6.25A6.256,6.256,0,0,0,0,6.25v37.5A6.256,6.256,0,0,0,6.25,50H25V32.813H18.75V25H25V18.75a9.374,9.374,0,0,1,9.375-9.375h6.25v7.813H37.5c-1.725,0-3.125-.163-3.125,1.563V25h7.813l-3.125,7.813H34.375V50H43.75A6.256,6.256,0,0,0,50,43.75V6.25A6.256,6.256,0,0,0,43.75,0Z" fill="#fff"/>
      </g>
    </g>
    <g id="github" transform="translate(1289 975.671)">
      <g id="Group_2" data-name="Group 2" transform="translate(0 5.329)">
        <path id="Path_2" data-name="Path 2" d="M25,5.329c-13.8,0-25,11.476-25,25.634A25.591,25.591,0,0,0,17.1,55.285c1.25.236,1.706-.555,1.706-1.235,0-.61-.022-2.221-.034-4.36-6.953,1.548-8.422-3.437-8.422-3.437C9.216,43.291,7.575,42.5,7.575,42.5c-2.272-1.589.169-1.557.169-1.557a5.264,5.264,0,0,1,3.828,2.643c2.231,3.916,5.853,2.786,7.278,2.129a5.516,5.516,0,0,1,1.587-3.428C14.887,41.641,9.05,39.442,9.05,29.622a10.054,10.054,0,0,1,2.575-6.881,9.419,9.419,0,0,1,.244-6.782s2.1-.689,6.875,2.627a23.124,23.124,0,0,1,12.519,0c4.772-3.316,6.869-2.627,6.869-2.627a9.433,9.433,0,0,1,.25,6.782,10.035,10.035,0,0,1,2.569,6.881c0,9.846-5.844,12.013-11.413,12.648a6.2,6.2,0,0,1,1.7,4.746c0,3.428-.031,6.191-.031,7.031,0,.686.45,1.484,1.719,1.232A25.594,25.594,0,0,0,50,30.963C50,16.805,38.806,5.329,25,5.329Z" transform="translate(0 -5.329)" fill="#fff"/>
      </g>
    </g>
    <g id="instagram" transform="translate(1402 981)">
      <g id="Group_4" data-name="Group 4">
        <g id="Group_3" data-name="Group 3">
          <path id="Path_3" data-name="Path 3" d="M34.375,0H15.625A15.627,15.627,0,0,0,0,15.625v18.75A15.627,15.627,0,0,0,15.625,50h18.75A15.627,15.627,0,0,0,50,34.375V15.625A15.627,15.627,0,0,0,34.375,0ZM45.313,34.375A10.95,10.95,0,0,1,34.375,45.313H15.625A10.95,10.95,0,0,1,4.688,34.375V15.625A10.95,10.95,0,0,1,15.625,4.688h18.75A10.95,10.95,0,0,1,45.313,15.625Z" fill="#fff"/>
        </g>
      </g>
      <g id="Group_6" data-name="Group 6" transform="translate(3 3)">
        <g id="Group_5" data-name="Group 5" transform="translate(10 10)">
          <path id="Path_4" data-name="Path 4" d="M140.5,128A12.5,12.5,0,1,0,153,140.5,12.5,12.5,0,0,0,140.5,128Zm0,20.313a7.813,7.813,0,1,1,7.813-7.812A7.823,7.823,0,0,1,140.5,148.313Z" transform="translate(-128 -128)" fill="#fff"/>
        </g>
      </g>
      <g id="Group_8" data-name="Group 8" transform="translate(-341 -93)">
        <g id="Group_7" data-name="Group 7" transform="translate(376.544 101.344)">
          <circle id="Ellipse_1" data-name="Ellipse 1" cx="2" cy="2" r="2" fill="#fff"/>
        </g>
      </g>
    </g>
    <g id="snapchat" transform="translate(1752 965.012)">
      <g id="Group_15" data-name="Group 15" transform="translate(0 15.988)">
        <path id="Path_6" data-name="Path 6" d="M52.285,53.325c-7.13-1.173-10.343-8.477-10.473-8.787a.5.5,0,0,0-.03-.06,2.2,2.2,0,0,1-.25-1.813c.39-.913,1.883-1.387,2.87-1.7.287-.09.557-.177.78-.263a6.036,6.036,0,0,0,2.127-1.27,2.02,2.02,0,0,0,.647-1.453,2.287,2.287,0,0,0-1.713-1.983,3.1,3.1,0,0,0-1.16-.22,2.583,2.583,0,0,0-1.08.22,6.061,6.061,0,0,1-2.223.633,2.041,2.041,0,0,1-.737-.16c.02-.333.04-.677.063-1.03l.01-.153c.23-3.61.513-8.1-.68-10.767a14.483,14.483,0,0,0-3.263-4.67,13.647,13.647,0,0,0-3.9-2.573,15.423,15.423,0,0,0-6.09-1.287h-.133l-.917.01a15.481,15.481,0,0,0-6.1,1.287,13.571,13.571,0,0,0-3.89,2.57,14.53,14.53,0,0,0-3.25,4.66c-1.193,2.663-.91,7.153-.683,10.76v.007c.023.387.05.79.073,1.183a2.136,2.136,0,0,1-.873.163,5.783,5.783,0,0,1-2.377-.637,2.135,2.135,0,0,0-.9-.187,3.194,3.194,0,0,0-1.6.447A2.209,2.209,0,0,0,5.4,37.695a1.991,1.991,0,0,0,.76,1.87A6.555,6.555,0,0,0,8.149,40.7c.227.09.5.173.78.263.987.313,2.483.787,2.873,1.7a2.22,2.22,0,0,1-.253,1.813.472.472,0,0,0-.027.06,17.651,17.651,0,0,1-2.687,4.153,15.075,15.075,0,0,1-3.24,2.86,11.923,11.923,0,0,1-4.55,1.77A1.245,1.245,0,0,0,0,54.621a1.579,1.579,0,0,0,.13.543v0a3.332,3.332,0,0,0,1.807,1.543,20.632,20.632,0,0,0,5.217,1.357,6.328,6.328,0,0,1,.32,1.147c.087.4.177.813.307,1.25a1.367,1.367,0,0,0,1.43,1.04,6.962,6.962,0,0,0,1.227-.17,13.949,13.949,0,0,1,2.8-.317,12.154,12.154,0,0,1,2,.17,9.5,9.5,0,0,1,3.737,1.93c1.907,1.347,4.067,2.87,7.367,2.87q.135,0,.27-.01c.107.007.243.01.383.01,3.3,0,5.46-1.523,7.367-2.867l0,0A9.534,9.534,0,0,1,38.1,61.191a12.153,12.153,0,0,1,2-.17,14.015,14.015,0,0,1,2.8.3,6.758,6.758,0,0,0,1.227.15h.06a1.35,1.35,0,0,0,1.37-1.023c.127-.43.217-.83.307-1.24a6.547,6.547,0,0,1,.317-1.14,20.775,20.775,0,0,0,5.217-1.357,3.345,3.345,0,0,0,1.8-1.54,1.584,1.584,0,0,0,.133-.55A1.24,1.24,0,0,0,52.285,53.325Z" transform="translate(0 -15.988)" fill="#fff"/>
      </g>
    </g>
    <g id="linkedin" transform="translate(887 609)">
      <path id="linkedin_1_" data-name="linkedin (1)" d="M25,0A25,25,0,1,0,50,25,25,25,0,0,0,25,0ZM17.735,37.793H11.647V19.475h6.089ZM14.691,16.974h-.04a3.173,3.173,0,1,1,.08-6.329,3.175,3.175,0,1,1-.04,6.329Zm25,20.819H33.6v-9.8c0-2.463-.882-4.142-3.085-4.142a3.333,3.333,0,0,0-3.124,2.227,4.17,4.17,0,0,0-.2,1.486V37.793H21.1s.08-16.6,0-18.318h6.088v2.594a6.045,6.045,0,0,1,5.487-3.024c4.006,0,7.01,2.618,7.01,8.244Zm0,0" transform="translate(289 372)" fill="#fff"/>
    </g>
    <g id="twitter" transform="translate(1628 933)">
      <g id="Group_16" data-name="Group 16" transform="translate(0 48)">
        <path id="Path_7" data-name="Path 7" d="M61.538,53.919a26.3,26.3,0,0,1-7.269,1.992,12.545,12.545,0,0,0,5.55-6.973,25.212,25.212,0,0,1-8,3.054A12.615,12.615,0,0,0,30,60.619a12.99,12.99,0,0,0,.292,2.877,35.709,35.709,0,0,1-26-13.2A12.619,12.619,0,0,0,8.162,67.162a12.459,12.459,0,0,1-5.7-1.554v.138a12.674,12.674,0,0,0,10.108,12.4,12.592,12.592,0,0,1-3.308.415,11.155,11.155,0,0,1-2.388-.215,12.736,12.736,0,0,0,11.788,8.788A25.349,25.349,0,0,1,3.019,92.512,23.63,23.63,0,0,1,0,92.338,35.517,35.517,0,0,0,19.354,98c23.215,0,35.908-19.231,35.908-35.9,0-.558-.019-1.1-.046-1.631A25.168,25.168,0,0,0,61.538,53.919Z" transform="translate(0 -48)" fill="#fff"/>
      </g>
    </g>
  </g>
</svg>
