<svg xmlns="http://www.w3.org/2000/svg" width="61.538" height="50" viewBox="0 0 61.538 50">
  <g id="twitter" transform="translate(0 -48)">
    <g id="Group_16" data-name="Group 16" transform="translate(0 48)">
      <path id="Path_7" data-name="Path 7" d="M61.538,53.919a26.3,26.3,0,0,1-7.269,1.992,12.545,12.545,0,0,0,5.55-6.973,25.212,25.212,0,0,1-8,3.054A12.615,12.615,0,0,0,30,60.619a12.99,12.99,0,0,0,.292,2.877,35.709,35.709,0,0,1-26-13.2A12.619,12.619,0,0,0,8.162,67.162a12.459,12.459,0,0,1-5.7-1.554v.138a12.674,12.674,0,0,0,10.108,12.4,12.592,12.592,0,0,1-3.308.415,11.155,11.155,0,0,1-2.388-.215,12.736,12.736,0,0,0,11.788,8.788A25.349,25.349,0,0,1,3.019,92.512,23.63,23.63,0,0,1,0,92.338,35.517,35.517,0,0,0,19.354,98c23.215,0,35.908-19.231,35.908-35.9,0-.558-.019-1.1-.046-1.631A25.168,25.168,0,0,0,61.538,53.919Z" transform="translate(0 -48)" fill="#fff"/>
    </g>
  </g>
</svg>
